<svg xmlns="http://www.w3.org/2000/svg" version="1.1" xmlns:xlink="http://www.w3.org/1999/xlink" xmlns:svgjs="http://svgjs.com/svgjs" width="1000" height="1000"><rect width="1000" height="1000" rx="200" ry="200" fill="#ea580c"></rect><g transform="matrix(33.333333333333336,0,0,33.333333333333336,99.94557539621985,104.32373797893524)"><svg xmlns="http://www.w3.org/2000/svg" version="1.1" xmlns:xlink="http://www.w3.org/1999/xlink" xmlns:svgjs="http://svgjs.com/svgjs" width="24" height="24"><svg xmlns="http://www.w3.org/2000/svg" viewBox="0 0 24 24" fill="white" class="w-6 h-6">
  <path fill-rule="evenodd" d="M12.963 2.286a.75.75 0 0 0-1.071-.136 9.742 9.742 0 0 0-3.539 6.176 7.547 7.547 0 0 1-1.705-1.715.75.75 0 0 0-1.152-.082A9 9 0 1 0 15.68 4.534a7.46 7.46 0 0 1-2.717-2.248ZM15.75 14.25a3.75 3.75 0 1 1-7.313-1.172c.628.465 1.35.81 2.133 1a5.99 5.99 0 0 1 1.925-3.546 3.75 3.75 0 0 1 3.255 3.718Z" clip-rule="evenodd"></path>
</svg></svg></g></svg>